# Continuous white paint ribbon
vn 0 0 1
v -0.350000000 0.310000000 0.001200000
v -0.350000000 0.290000000 0.001200000
v 0.340000000 0.310000000 0.001200000
v 0.360000000 0.290000000 0.001200000
v 0.340000000 0.810000000 0.001200000
v 0.360000000 0.790000000 0.001200000
v 1.560000000 0.810000000 0.001200000
v 1.540000000 0.790000000 0.001200000
v 1.560000000 0.310000000 0.001200000
v 1.540000000 0.290000000 0.001200000
v 2.000000000 0.310000000 0.001200000
v 2.000000000 0.290000000 0.001200000
f 1//1 2//1 3//1
f 3//1 2//1 4//1
f 3//1 4//1 5//1
f 5//1 4//1 6//1
f 5//1 6//1 7//1
f 7//1 6//1 8//1
f 7//1 8//1 9//1
f 9//1 8//1 10//1
f 9//1 10//1 11//1
f 11//1 10//1 12//1
